<svg viewBox="0 0 26 26" xmlns="http://www.w3.org/2000/svg" xmlns:xlink="http://www.w3.org/1999/xlink" id="Capa_1" overflow="hidden"><g><path d="M25.162 3 16 3 16 5.984 19.031 5.984 19.031 8.015 16 8.015 16 10 19 10 19 12 16 12 16 14 19 14 19 16 16 16 16 18 19 18 19 20 16 20 16 23 25.162 23C25.623 23 26 22.609 26 22.13L26 3.87C26 3.391 25.623 3 25.162 3ZM24 20 20 20 20 18 24 18 24 20ZM24 16 20 16 20 14 24 14 24 16ZM24 12 20 12 20 10 24 10 24 12ZM24 8 20 8 20 6 24 6 24 8Z" fill="#1565C0"/><path d="M0 2.889 0 23.112 15 26 15 0 0 2.889ZM9.488 18.08 7.743 14.781C7.677 14.658 7.609 14.432 7.538 14.103L7.511 14.103C7.478 14.258 7.4 14.494 7.277 14.81L5.526 18.08 2.807 18.08 6.035 13.016 3.082 7.951 5.858 7.951 7.306 10.988C7.419 11.228 7.52 11.513 7.61 11.842L7.638 11.842C7.695 11.644 7.801 11.35 7.956 10.959L9.566 7.95 12.108 7.95 9.071 12.972 12.193 18.079 9.488 18.08 9.488 18.08Z" fill="#1565C0"/></g><g></g><g></g><g></g><g></g><g></g><g></g><g></g><g></g><g></g><g></g><g></g><g></g><g></g><g></g><g></g></svg>